<?xml version="1.0" standalone="no"?>
<!DOCTYPE svg PUBLIC "-//W3C//DTD SVG 20010904//EN"
 "http://www.w3.org/TR/2001/REC-SVG-20010904/DTD/svg10.dtd">
<svg version="1.0" xmlns="http://www.w3.org/2000/svg"
 width="1200.000000pt" height="1200.000000pt" viewBox="0 0 1200.000000 1200.000000"
 preserveAspectRatio="xMidYMid meet">
<metadata>
Created by potrace 1.11, written by Peter Selinger 2001-2013
</metadata>
<g transform="translate(0.000000,1200.000000) scale(0.100000,-0.100000)"
fill="#000000" stroke="none">
<path d="M2834 11366 c-9 -24 4 -48 23 -44 12 2 18 12 18 28 0 29 -32 41 -41
16z"/>
<path d="M4367 11252 c-36 -40 -10 -112 40 -112 29 0 73 38 73 64 0 12 -7 32
-16 44 -19 28 -74 30 -97 4z"/>
<path d="M3352 10995 c-30 -13 -52 -47 -52 -80 0 -8 10 -26 23 -40 48 -56 137
-20 137 55 0 60 -50 90 -108 65z"/>
<path d="M2057 10882 c-22 -24 -21 -65 1 -85 40 -36 102 -9 102 45 0 51 -69
78 -103 40z"/>
<path d="M2670 10789 c-1 -19 -9 -63 -18 -99 -16 -59 -20 -66 -52 -77 -19 -7
-60 -13 -90 -14 -33 -1 -43 -4 -25 -6 63 -8 125 -35 143 -61 24 -34 42 -107
42 -168 0 -64 9 -50 26 38 8 40 19 85 25 101 15 35 62 69 108 77 36 6 35 6
-31 24 -63 18 -67 21 -82 60 -9 22 -20 65 -26 95 -12 65 -20 77 -20 30z"/>
<path d="M5201 10793 c-78 -39 -95 -144 -32 -206 28 -28 38 -32 87 -32 51 0
58 3 90 37 28 31 34 46 34 80 0 24 -6 54 -13 67 -30 59 -107 84 -166 54z"/>
<path d="M3807 10670 c-11 -98 -32 -119 -120 -121 l-42 -1 48 -8 c27 -5 59
-16 72 -24 27 -18 54 -96 56 -160 1 -34 3 -29 14 30 7 38 16 80 19 92 8 25 64
62 97 63 13 1 -1 8 -32 16 -63 16 -70 25 -89 116 -6 31 -13 57 -14 57 -2 0 -6
-27 -9 -60z"/>
<path d="M6586 10544 c-22 -21 -20 -50 4 -74 25 -25 52 -26 73 -2 34 37 11 92
-38 92 -13 0 -31 -7 -39 -16z"/>
<path d="M4561 10435 c-2 -165 -18 -337 -34 -377 -23 -55 -93 -90 -227 -116
-30 -6 -75 -15 -100 -20 l-45 -10 50 -2 c236 -9 284 -26 346 -121 62 -94 78
-146 130 -409 11 -58 24 -121 29 -140 l9 -35 -5 37 c-2 21 -7 113 -9 205 -3
134 -1 187 13 259 22 108 46 152 117 205 53 40 67 46 185 79 l65 18 -95 0
c-110 0 -234 24 -263 49 -47 43 -101 196 -151 423 l-14 65 -1 -110z"/>
<path d="M1793 10445 c-3 -114 -13 -234 -24 -277 -17 -67 -61 -92 -198 -114
-46 -7 -86 -16 -89 -19 -3 -3 26 -5 65 -5 87 0 168 -23 200 -58 58 -63 83
-139 122 -372 l18 -105 -1 150 c-1 167 14 268 48 318 32 47 109 95 177 109 64
13 83 34 21 23 -44 -7 -164 11 -203 31 -41 20 -80 129 -122 334 l-13 65 -1
-80z"/>
<path d="M3327 10265 c-9 -121 -33 -253 -51 -280 -22 -34 -73 -53 -176 -66
l-95 -13 87 -13 c125 -18 160 -38 197 -115 30 -62 61 -208 61 -290 0 -21 5
-38 10 -38 6 0 10 30 10 70 0 81 23 206 49 265 29 66 137 125 230 125 27 0 32
3 21 10 -8 5 -35 9 -60 9 -44 -1 -109 12 -162 32 -43 17 -80 132 -106 334 l-8
60 -7 -90z"/>
<path d="M5890 10273 c0 -34 -16 -109 -33 -156 -15 -42 -60 -61 -142 -60 -45
0 -63 -2 -50 -7 11 -5 30 -9 42 -9 12 -1 42 -10 68 -21 40 -17 49 -27 70 -75
20 -44 25 -72 25 -137 0 -85 7 -95 21 -31 16 78 36 149 47 170 16 28 77 65
121 73 l36 6 -58 18 c-31 10 -66 25 -77 34 -21 18 -50 115 -50 167 0 16 -5 37
-10 45 -7 11 -10 7 -10 -17z"/>
<path d="M7442 10061 c-14 -8 -6 -41 9 -41 14 0 23 30 13 40 -5 5 -15 6 -22 1z"/>
<path d="M6837 9990 c-11 -98 -32 -119 -120 -121 l-42 -1 48 -8 c27 -5 59 -16
72 -24 27 -18 54 -96 56 -160 1 -34 3 -29 14 30 7 38 16 80 19 92 8 25 64 62
97 63 13 1 -1 8 -32 16 -63 16 -70 25 -89 116 -6 31 -13 57 -14 57 -2 0 -6
-27 -9 -60z"/>
<path d="M1397 9653 c-16 -15 -6 -33 18 -33 27 0 32 9 13 28 -14 14 -22 15
-31 5z"/>
<path d="M5332 9620 c-53 -22 -46 -104 11 -124 22 -8 32 -6 55 11 44 33 43 90
-3 111 -30 14 -32 14 -63 2z"/>
<path d="M7917 9623 c-4 -3 -7 -26 -7 -50 0 -24 -7 -60 -15 -80 -8 -19 -15
-47 -15 -62 0 -15 -12 -41 -27 -59 -33 -39 -75 -51 -183 -53 -70 -1 -72 -2
-35 -10 93 -22 122 -31 152 -47 62 -32 103 -147 103 -296 1 -86 11 -73 34 39
37 181 85 247 192 262 24 3 44 9 44 13 0 4 -33 18 -72 31 -40 13 -82 34 -94
46 -22 24 -36 77 -54 202 -10 68 -13 75 -23 64z"/>
<path d="M6166 9444 c-9 -8 -16 -19 -16 -24 0 -5 7 -16 16 -24 8 -9 19 -16 24
-16 5 0 16 7 24 16 9 8 16 19 16 24 0 5 -7 16 -16 24 -8 9 -19 16 -24 16 -5 0
-16 -7 -24 -16z"/>
<path d="M2217 9443 c-15 -14 -7 -63 12 -73 39 -20 82 22 61 60 -10 20 -58 28
-73 13z"/>
<path d="M3363 9405 c0 -22 2 -30 4 -17 2 12 2 30 0 40 -3 9 -5 -1 -4 -23z"/>
<path d="M6925 9408 c-35 -30 -37 -79 -5 -113 48 -51 130 -16 130 55 0 70 -72
103 -125 58z"/>
<path d="M3802 9383 c-50 -44 -23 -123 36 -108 60 15 81 66 42 105 -25 25 -51
26 -78 3z"/>
<path d="M1447 9230 c-11 -98 -32 -119 -120 -121 l-42 -1 48 -8 c27 -5 59 -16
72 -24 27 -18 54 -96 56 -160 1 -34 3 -29 14 30 7 38 16 80 19 92 8 25 64 62
97 63 13 1 -1 8 -32 16 -63 16 -70 25 -89 116 -6 31 -13 57 -14 57 -2 0 -6
-27 -9 -60z"/>
<path d="M5070 9160 c-1 -19 -9 -64 -18 -100 -16 -59 -20 -66 -52 -77 -19 -7
-60 -13 -90 -14 -30 -1 -44 -4 -30 -6 75 -12 130 -35 148 -61 20 -28 40 -108
45 -177 l2 -40 12 40 c6 22 17 67 24 100 14 72 51 112 113 122 l41 6 -30 13
c-16 7 -40 13 -51 14 -42 0 -63 31 -81 115 -18 89 -33 117 -33 65z"/>
<path d="M5837 9050 c-7 -151 -42 -374 -64 -411 -33 -55 -131 -88 -317 -105
-85 -8 -68 -21 40 -29 122 -10 207 -39 250 -88 68 -75 106 -187 134 -402 7
-49 16 -114 21 -144 5 -30 10 -73 11 -95 1 -23 5 54 8 169 6 168 12 228 29
300 29 116 46 149 101 195 65 54 116 77 215 96 61 12 82 20 69 25 -10 4 -34 5
-52 2 -45 -7 -183 18 -264 49 -64 24 -107 155 -161 483 l-13 80 -7 -125z"/>
<path d="M1880 9055 c-17 -20 -5 -45 20 -45 11 0 23 7 26 15 6 15 -11 45 -26
45 -4 0 -13 -7 -20 -15z"/>
<path d="M6627 8940 c-11 -98 -32 -119 -120 -121 l-42 -1 48 -8 c27 -5 59 -16
72 -24 27 -18 54 -96 56 -160 1 -34 3 -29 14 30 7 38 16 80 19 92 8 25 64 62
97 63 13 1 -1 8 -32 16 -63 16 -70 25 -89 116 -6 31 -13 57 -14 57 -2 0 -6
-27 -9 -60z"/>
<path d="M8687 8923 c-14 -13 -6 -33 13 -33 13 0 20 7 20 20 0 19 -20 27 -33
13z"/>
<path d="M7251 8830 c-3 -127 -61 -480 -88 -542 -18 -40 -29 -50 -86 -77 -55
-26 -88 -34 -221 -48 -85 -9 -154 -18 -152 -20 2 -2 52 -10 112 -18 126 -17
164 -26 219 -49 51 -22 70 -40 110 -102 72 -112 102 -259 134 -654 7 -84 7
-83 14 75 4 88 12 196 18 240 14 100 55 257 79 306 23 45 99 113 160 144 56
28 163 55 218 55 42 0 71 19 30 21 -133 5 -186 11 -261 32 -131 38 -150 54
-187 163 -25 70 -70 284 -71 334 0 19 -6 69 -13 110 -12 68 -14 71 -15 30z"/>
<path d="M2226 8834 c-20 -19 -21 -68 -2 -84 23 -18 59 -8 75 22 31 55 -29
106 -73 62z"/>
<path d="M1997 8540 c-11 -98 -32 -119 -120 -121 l-42 -1 48 -8 c27 -5 59 -16
72 -24 27 -18 54 -96 56 -160 1 -34 3 -29 14 30 7 38 16 80 19 92 8 25 64 62
97 63 13 1 -1 8 -32 16 -63 16 -70 25 -89 116 -6 31 -13 57 -14 57 -2 0 -6
-27 -9 -60z"/>
<path d="M8602 8520 c-100 -61 -96 -207 8 -261 45 -25 84 -24 137 2 141 68 90
279 -67 279 -27 0 -58 -8 -78 -20z"/>
<path d="M1524 8506 c-9 -24 4 -48 23 -44 12 2 18 12 18 28 0 29 -32 41 -41
16z"/>
<path d="M9647 7980 c-11 -98 -32 -119 -120 -121 l-42 -1 48 -8 c27 -5 59 -16
72 -24 27 -18 54 -96 56 -160 1 -34 3 -29 14 30 7 38 16 80 19 92 8 25 64 62
97 63 13 1 -1 8 -32 16 -63 16 -70 25 -89 116 -6 31 -13 57 -14 57 -2 0 -6
-27 -9 -60z"/>
<path d="M8120 7933 c0 -43 -5 -109 -11 -148 -5 -38 -14 -101 -19 -140 -9 -62
-26 -159 -50 -280 -5 -22 -13 -69 -19 -105 -6 -36 -15 -74 -20 -85 -5 -11 -17
-39 -27 -63 -20 -49 -55 -82 -123 -116 -89 -45 -174 -60 -416 -72 -252 -12
-235 -27 75 -64 47 -6 95 -15 108 -20 13 -6 30 -10 40 -10 9 0 57 -20 107 -44
78 -38 96 -52 134 -103 44 -59 88 -145 111 -218 7 -22 16 -49 21 -60 18 -48
40 -171 50 -290 5 -55 13 -147 18 -205 5 -58 14 -177 21 -265 7 -88 14 -162
16 -164 2 -2 5 31 5 75 1 89 2 104 23 364 18 236 35 322 103 540 45 142 89
200 220 283 111 71 207 101 385 119 60 7 108 15 108 19 0 11 -58 19 -143 19
-44 0 -94 4 -111 9 -17 5 -67 18 -111 27 -44 10 -84 21 -89 26 -6 4 -18 8 -28
8 -33 0 -129 42 -152 67 -20 22 -42 64 -77 148 -24 59 -51 173 -69 290 -5 33
-14 83 -20 110 -6 28 -15 102 -20 165 -16 194 -22 250 -31 256 -5 3 -9 -30 -9
-73z"/>
<path d="M1722 7924 c-45 -31 -17 -104 40 -104 53 0 79 74 36 104 -12 9 -29
16 -38 16 -9 0 -26 -7 -38 -16z"/>
<path d="M2184 7736 c-9 -22 4 -36 32 -36 21 0 25 4 22 23 -4 26 -45 37 -54
13z"/>
<path d="M8781 7584 c-27 -35 -26 -59 4 -89 30 -30 54 -31 89 -4 33 26 34 68
3 97 -32 30 -71 28 -96 -4z"/>
<path d="M6642 7498 c-29 -29 -1 -98 39 -98 48 0 76 62 43 94 -18 19 -65 21
-82 4z"/>
<path d="M9844 7306 c-10 -26 4 -48 28 -44 17 2 23 10 23 28 0 18 -6 26 -23
28 -13 2 -25 -3 -28 -12z"/>
<path d="M5185 7105 c-60 -51 -177 -166 -260 -256 -82 -90 -231 -251 -331
-359 -176 -190 -516 -578 -642 -734 l-63 -77 -26 16 c-267 175 -1286 754
-1597 907 -87 44 -299 138 -302 135 -2 -2 30 -58 71 -124 40 -67 84 -141 96
-165 12 -24 41 -72 64 -108 23 -36 76 -128 117 -205 42 -77 131 -230 200 -340
69 -110 162 -267 208 -350 46 -82 98 -172 115 -200 17 -27 73 -126 125 -218
l93 -169 -60 -61 c-173 -180 -731 -826 -1028 -1193 -71 -87 -164 -199 -207
-248 -43 -48 -78 -92 -78 -97 0 -11 6 -11 68 1 27 5 88 12 134 15 45 3 182 21
303 40 121 19 276 41 345 50 69 9 168 27 220 40 52 13 183 40 290 60 107 20
245 47 305 61 61 14 157 32 215 40 102 14 105 14 120 -5 8 -11 85 -128 170
-261 149 -232 756 -1108 804 -1160 12 -14 65 -89 117 -167 l94 -142 7 117 c4
64 12 178 18 252 5 74 14 225 20 335 37 722 50 1004 56 1180 l6 200 192 27
c105 15 279 44 386 64 107 20 211 37 230 39 19 1 71 12 115 24 44 12 157 37
250 56 158 31 280 62 463 117 57 17 70 24 60 34 -29 26 -1266 723 -1428 804
-47 23 -106 58 -132 77 l-48 35 0 72 c0 39 18 177 39 306 52 309 138 905 151
1050 21 228 49 574 47 576 -1 1 -51 -40 -112 -91z"/>
<path d="M9890 6671 c0 -38 -4 -91 -9 -118 -6 -26 -15 -84 -22 -128 -12 -84
-18 -119 -44 -250 -9 -44 -20 -104 -26 -132 -12 -65 -46 -159 -70 -194 -21
-31 -103 -76 -173 -96 -55 -16 -178 -30 -371 -41 -155 -10 -143 -15 107 -52
134 -19 276 -71 338 -122 48 -39 112 -152 146 -257 49 -147 60 -237 88 -691 8
-129 16 -237 17 -240 2 -3 6 45 9 105 14 237 31 442 40 475 4 19 18 77 30 128
34 149 80 283 116 339 36 57 133 135 222 178 64 32 197 61 315 71 48 4 87 11
87 15 0 11 13 9 -120 19 -63 5 -133 13 -155 19 -22 5 -60 15 -85 21 -25 5 -54
14 -65 19 -11 4 -47 17 -80 27 -75 24 -115 58 -138 121 -11 26 -22 57 -27 68
-27 71 -34 103 -65 295 -24 144 -34 234 -41 363 -7 128 -24 170 -24 58z"/>
<path d="M9111 6450 c-1 -48 -18 -104 -39 -130 -12 -15 -35 -23 -82 -29 -37
-5 -51 -9 -32 -10 93 -3 141 -65 142 -181 1 -74 12 -63 30 33 14 70 47 112
104 131 l40 14 -43 7 c-57 9 -77 31 -91 102 -7 32 -16 67 -20 78 -7 16 -9 13
-9 -15z"/>
<path d="M10662 6444 c-22 -15 -30 -66 -14 -90 34 -52 122 -25 122 38 0 56
-60 86 -108 52z"/>
<path d="M7204 6371 c-36 -22 -58 -75 -48 -115 10 -41 59 -76 105 -76 29 0 47
7 71 29 28 25 33 36 33 75 0 36 -6 51 -26 72 -35 35 -94 42 -135 15z"/>
<path d="M7707 5800 c-11 -98 -32 -119 -120 -121 l-42 -1 48 -8 c27 -5 59 -16
72 -24 27 -18 54 -96 56 -160 1 -34 3 -29 14 30 7 38 16 80 19 92 8 25 64 62
97 63 13 1 -1 8 -32 16 -63 16 -70 25 -89 116 -6 31 -13 57 -14 57 -2 0 -6
-27 -9 -60z"/>
<path d="M8738 5448 c-9 -80 -53 -305 -74 -370 -18 -54 -58 -93 -112 -107 -20
-6 -93 -13 -162 -17 -135 -8 -133 -11 15 -39 107 -19 158 -45 202 -103 52 -69
72 -152 88 -377 20 -262 20 -261 29 -110 13 211 61 398 121 464 61 68 173 111
287 111 69 0 40 17 -39 23 -99 7 -226 50 -253 84 -43 54 -62 147 -88 428 l-8
80 -6 -67z"/>
<path d="M7814 4855 c-9 -23 3 -45 25 -45 19 0 41 26 41 49 0 17 -60 13 -66
-4z"/>
<path d="M9340 4725 c0 -95 -36 -364 -69 -520 -22 -100 -30 -143 -37 -185 -3
-24 -10 -51 -14 -60 -4 -8 -16 -34 -26 -58 -19 -46 -55 -82 -113 -111 -65 -33
-163 -61 -216 -61 -29 0 -75 -4 -102 -9 -28 -6 -98 -11 -156 -12 -101 -1 -150
-11 -117 -23 18 -6 124 -22 240 -36 47 -6 95 -15 108 -20 13 -6 31 -10 41 -10
11 0 59 -20 107 -44 70 -35 97 -55 126 -94 48 -62 90 -141 113 -212 10 -30 21
-64 26 -75 4 -11 12 -42 18 -70 5 -27 13 -63 16 -80 4 -16 11 -77 16 -135 4
-58 13 -152 18 -210 4 -58 14 -175 20 -260 15 -185 19 -203 21 -90 1 47 3 101
5 120 1 19 7 109 14 200 6 91 13 179 16 195 11 76 35 188 59 275 65 240 98
291 251 391 111 73 206 103 387 121 60 7 108 15 108 20 0 10 12 9 -125 18 -66
5 -140 13 -165 18 -25 6 -67 16 -95 22 -27 6 -58 15 -67 20 -10 6 -25 10 -33
10 -30 0 -136 49 -155 72 -16 20 -40 68 -71 143 -24 59 -51 173 -69 290 -5 33
-14 83 -20 110 -6 28 -15 102 -20 165 -16 194 -22 250 -31 256 -5 3 -9 -29 -9
-71z"/>
<path d="M10432 4457 c-12 -13 -22 -33 -22 -45 0 -31 35 -62 68 -62 57 0 83
69 42 110 -27 27 -62 25 -88 -3z"/>
<path d="M7905 4185 c-31 -30 -32 -73 -4 -109 43 -55 139 -18 139 54 0 41 -39
80 -80 80 -19 0 -40 -9 -55 -25z"/>
<path d="M7327 4023 c-9 -144 -64 -449 -90 -503 -18 -37 -34 -51 -85 -78 -65
-35 -104 -42 -320 -58 -45 -4 -81 -8 -79 -10 2 -2 50 -10 108 -19 190 -27 265
-57 322 -127 94 -116 117 -216 151 -648 8 -91 14 -158 15 -150 1 8 4 53 6 100
13 287 21 334 87 565 17 59 51 106 106 147 91 67 169 95 315 113 32 4 56 9 53
12 -3 4 -52 10 -108 14 -104 8 -263 47 -306 75 -45 29 -85 149 -126 376 -9 48
-16 104 -16 126 0 63 -12 162 -20 162 -4 0 -10 -44 -13 -97z"/>
<path d="M10853 3811 c-111 -70 -62 -241 69 -241 39 0 90 29 114 65 26 40 15
119 -24 157 -40 41 -111 49 -159 19z"/>
<path d="M6440 3635 c0 -95 -36 -364 -69 -520 -22 -100 -30 -143 -37 -185 -3
-24 -10 -51 -14 -60 -4 -8 -16 -34 -26 -58 -19 -46 -55 -82 -113 -111 -99 -51
-186 -66 -436 -77 -243 -10 -221 -27 85 -64 47 -6 95 -15 108 -20 13 -6 31
-10 41 -10 11 0 59 -20 107 -44 71 -36 97 -55 127 -95 46 -60 97 -158 116
-221 7 -25 17 -54 21 -65 5 -11 13 -42 19 -70 5 -27 13 -63 16 -80 4 -16 11
-77 15 -135 15 -171 29 -335 44 -495 12 -141 13 -145 16 -70 3 92 4 116 24
365 14 183 26 272 46 340 6 19 21 76 35 125 61 216 89 258 240 356 111 73 206
103 387 121 60 7 108 15 108 20 0 10 12 9 -125 18 -66 5 -140 13 -165 18 -25
6 -67 16 -95 22 -27 6 -59 15 -70 20 -11 5 -40 14 -65 21 -106 27 -127 49
-191 204 -24 59 -51 173 -69 290 -5 33 -14 83 -20 110 -6 28 -15 102 -20 165
-16 194 -22 250 -31 256 -5 3 -9 -29 -9 -71z"/>
<path d="M5673 3660 c-37 -22 -63 -67 -63 -107 0 -60 64 -123 125 -123 62 0
125 63 125 125 0 63 -63 125 -127 125 -15 0 -42 -9 -60 -20z"/>
<path d="M8437 3290 c-11 -98 -32 -119 -120 -121 l-42 -1 48 -8 c27 -5 59 -16
72 -24 27 -18 54 -96 56 -160 1 -34 3 -29 14 30 7 38 16 80 19 92 8 25 64 62
97 63 13 1 -1 8 -32 16 -63 16 -70 25 -89 116 -6 31 -13 57 -14 57 -2 0 -6
-27 -9 -60z"/>
<path d="M10525 3090 c-7 -12 2 -30 16 -30 5 0 9 9 9 20 0 21 -15 27 -25 10z"/>
<path d="M7887 2619 c-10 -99 -43 -270 -61 -314 -21 -48 -75 -73 -187 -85 -51
-5 -96 -7 -101 -4 -4 3 -8 1 -8 -4 0 -5 34 -15 75 -21 41 -7 98 -24 126 -39
43 -22 58 -37 81 -82 37 -72 56 -173 66 -345 l8 -140 7 100 c9 121 29 239 56
320 33 101 109 155 247 177 l79 12 -70 7 c-83 8 -189 40 -216 65 -26 24 -57
127 -70 237 -6 51 -14 115 -18 142 l-7 50 -7 -76z"/>
<path d="M9899 2624 c-1 -30 -5 -55 -18 -117 -15 -68 -26 -76 -125 -87 -42 -4
-57 -8 -36 -9 19 -1 44 -6 55 -11 17 -7 14 -9 -15 -10 -33 -2 -32 -3 11 -10
26 -4 56 -13 66 -19 31 -16 54 -74 60 -152 6 -75 16 -74 27 1 17 114 51 170
103 170 13 0 22 4 18 9 -3 5 7 11 22 13 22 2 13 7 -39 22 -63 18 -67 21 -82
60 -9 22 -20 65 -26 95 -11 58 -19 77 -21 45z"/>
<path d="M8580 2560 c-30 -30 -27 -83 6 -109 35 -28 69 -26 99 4 30 30 32 64
4 99 -26 33 -79 36 -109 6z"/>
<path d="M8877 2241 c-11 -127 -64 -416 -87 -468 -31 -71 -134 -108 -330 -120
-127 -8 -123 -11 45 -38 125 -20 191 -49 237 -106 48 -59 63 -91 88 -185 18
-70 27 -141 59 -479 7 -76 7 -71 15 95 9 218 44 398 96 501 20 38 96 106 150
134 31 16 130 40 210 50 69 10 44 23 -45 25 -88 1 -255 46 -294 78 -46 37 -99
260 -128 532 l-8 75 -8 -94z"/>
<path d="M5546 1854 c-19 -18 -21 -55 -4 -72 7 -7 24 -12 38 -12 33 0 50 17
50 50 0 14 -5 31 -12 38 -17 17 -54 15 -72 -4z"/>
<path d="M7177 1440 c-11 -98 -32 -119 -120 -121 l-42 -1 48 -8 c27 -5 59 -16
72 -24 27 -18 54 -96 56 -160 1 -34 3 -29 14 30 7 38 16 80 19 92 8 25 64 62
97 63 13 1 -1 8 -32 16 -63 16 -70 25 -89 116 -6 31 -13 57 -14 57 -2 0 -6
-27 -9 -60z"/>
<path d="M7889 877 c-42 -28 -62 -81 -48 -129 14 -51 50 -80 107 -86 41 -4 52
0 80 23 66 56 62 151 -10 195 -43 26 -87 25 -129 -3z"/>
</g>
</svg>
